# xmcd
#
# Track frame offsets: 
#        150
#        22857
#        42585
#        55761
#        72406
#        86285
#
# Disc length: 1400 seconds
#
# Revision: 0
# Processed by: cddbd v1.5.2PL0 Copyright (c) Steve Scherf et al.
# Submitted via: ExactAudioCopy v0.99pb5
#
DISCID=44057606
DTITLE=Sean McConnell - The Walk Around EP
DYEAR=2008
DGENRE=Country
TTITLE0=Hold On
TTITLE1=Say Say Say
TTITLE2=The Walk Around
TTITLE3=Reckless Love
TTITLE4=Bob Dylan (They Say No)
TTITLE5=Our Love and Our Souls
EXTD=
EXTT0=
EXTT1=
EXTT2=
EXTT3=
EXTT4=
EXTT5=
PLAYORDER=
